<?xml version="1.0" encoding="UTF-8"?>
<svg id="b" data-name="Bottombody" xmlns="http://www.w3.org/2000/svg" viewBox="0 350 1000 250">
  <defs>
    <style>
      .c {
        fill: #fff;
        stroke-width: 0px;
      }
    </style>
  </defs>
  <path class="c" d="m174.806390361638478,487.569978237452233c-7.712512569793034,6.42758915257582-17.513892545292038,10.444832372939345-29.564631517541784,10.444832372939345-2.731329114310938,0-5.463153573038653-.321973870930378-8.033991096304817-1.125422515002356-14.460589560048902,17.353896298660402-35.991725325702646,34.063844855461866-60.735664978808927,34.063844855461866-19.763746886461377,0-29.886110044053567-14.300593313419085-29.886110044053567-32.777930749411098,0-36.313699196633024,39.366011493038968-74.393796583623043,74.072318057107623-78.089065933054371,4.659704928970314-4.017243220361706,9.961871566545597-7.712512569793034,18.959802897970803-7.712512569793034,11.568768854691371,0,20.084730068556382,10.92531645724921,20.084730068556382,27.79674729393264,0,18.799311306922391-9.319409857936989,40.329951728157539-21.209657239140142,54.791036632625037,2.570837523266164.642957053023565,4.981183455480277,1.124431826166983,7.391529387698029,1.124431826166983,14.782068086562504,0,21.530640421235148-5.462658228623695,28.439704346956205-9.96137622212882l.481970117560195,1.445415008263808Zm-86.283548620405782,38.562562848965172c17.192414018778436,0,31.97448210534094-18.799311306922391,40.168964792694169-32.93842234045951-13.496649324930331-7.391529387698029-22.976550773915733-18.316845844947238-22.976550773915733-35.831233734656053,0-15.103051268657509,5.784136755135478-26.672315467762019,13.17517079841673-34.705811219651878l-.320983182095006-.321973870930378c-23.940986353451081,4.981183455482096-49.488869995047935,43.543746304449087-49.488869995047935,79.053006168174761,0,11.890247381201334,5.945123690600667,24.744434997523058,19.442268359947775,24.744434997523058Zm40.972413436766146-34.86630281070029c7.873499505258224-17.835371071802001,12.854187616321724-34.706801908485431,12.854187616321724-54.309561859481619,0-12.211230563298159-4.177239466991523-20.405217906234611-10.604828619570981-20.405217906234611-3.052807640822721,0-6.10561528164726,1.605906599310401-8.354974278399823,3.534777758384735,8.033991096306636.320983182096825,13.336157733881919,5.783641410718701,13.336157733881919,13.818127851442114,0,5.623149819672108-1.92788047024078,9.319409857938808-4.1777348114083,14.139111033538938l-1.767388879192367-.641966364191831c2.570837523262526-5.624140508505661,4.017243220359887-9.641383728867368,4.017243220359887-13.01566989620369,0-7.230047107817882-4.820691864431865-12.371722154344752-12.693696025273312-12.371722154344752-6.10561528164726,7.712512569793034-8.355469622818418,18.638819715873979-8.355469622818418,31.171033461267143,0,17.674879480755408,5.784632099554074,32.296455976271318,15.74650366609967,38.081088075823573Z"/>
  <path class="c" d="m199.707849539292511,469.253132392506814l-5.623645164088884,8.676452804911605c-20.566700186116577,30.850050279173956-23.779999417985891,37.116157151869629-23.779999417985891,42.257832198398319,0,2.732319803146311,1.767388879190548,4.660200273385271,4.338226402454893,4.660200273385271,8.515961213866831,0,27.95773422939601-19.923743133091193,45.471626774688048-53.666604806458054l23.298029300427515-.642957053023565c-5.462658228623695,9.641383728865549-29.403644582076595,40.491434008039505-29.403644582076595,51.578232745170681,0,3.052312296407763,1.445910352678766,4.016252531526334,3.534777758384735,4.016252531526334,10.765320210615755,0,34.706306564068655-29.886110044051748,42.579310724910101-40.329951728157539l1.446405697097362,1.285914106048949c-10.926307146082763,12.854187616321724-32.135469040806129,43.22177243351689-51.416750465288715,43.22177243351689-9.479901448985402,0-13.497144669347108-6.748572334672645-13.497144669347108-13.657636260393701,0-2.570837523264345.803448644071977-5.462658228623695,1.446405697097362-7.06955551676765l-.321478526511783-.320983182096825c-9.319409857938808,10.764824866200797-19.92423847750797,21.048174959258176-31.653498923245934,21.048174959258176-8.837439740376794,0-13.175666142835325-5.945123690600667-13.175666142835325-13.978619442488707,0-12.693696025275131,19.281281424482586-38.723054440013584,23.619507826941117-46.435567009808437l23.137537709379103-.642957053021746Z"/>
  <path class="c" d="m250.156201669709844,474.394807439033684l1.124431826166983-2.570837523264345h13.336157733883738l13.657636260393701-23.298029300427515,22.334089065307126-.803448644071977-14.460589560048902,24.101477944499493h22.012610538795343l-1.285418761632172,2.570837523264345h-22.173597474260532c-5.94462834618389,10.443841684105792-23.619507826939298,35.67074214360764-23.619507826939298,46.435567009808437,0,3.696260038264882,2.24985434116752,5.302166637575283,5.784632099552255,5.302166637575283,17.031922427731843,0,40.008473201647575-31.010541870218731,48.042464297952392-40.490443319205951l1.285418761632172.642957053023565c-14.621576495514091,17.352905609826848-31.974977449757716,44.025221077590686-57.843844273449577,44.025221077590686-9.801379975497184,0-14.621576495514091-5.783641410718701-14.621576495514091-14.139111033535301,0-8.355469622818418,4.1777348114083-15.104041957491063,19.441773015530998-41.77635742525672h-13.014679207370136Z"/>
  <path class="c" d="m303.659342818618825,474.394807439033684l1.124431826168802-2.570837523264345h13.3361577338801l13.65763626039552-23.298029300427515,22.334089065308945-.803448644071977-14.460589560050721,24.101477944499493h22.012610538795343l-1.285418761633991,2.570837523264345h-22.173597474258713c-5.94462834618389,10.443841684105792-23.619507826941117,35.67074214360764-23.619507826941117,46.435567009808437,0,3.696260038264882,2.249854341171158,5.302166637575283,5.784632099555893,5.302166637575283,17.031922427730024,0,40.008473201643938-31.010541870218731,48.042464297952392-40.490443319205951l1.285418761630353.642957053023565c-14.621576495514091,17.352905609826848-31.974977449757716,44.025221077590686-57.843844273449577,44.025221077590686-9.801379975497184,0-14.621576495514091-5.783641410718701-14.621576495514091-14.139111033535301,0-8.355469622818418,4.1777348114083-15.104041957491063,19.441773015530998-41.77635742525672h-13.014679207370136Z"/>
  <path class="c" d="m440.714208129204053,470.53805580972039c-6.909063925719238,10.605323963987757-28.922169808931358,39.205519901990556-28.922169808931358,50.935275692145296,0,3.053302985241316,1.446405697097362,4.659209584551718,3.695764693848105,4.659209584551718,8.997931331425207,0,25.226405115083253-18.316845844945419,41.454878898743118-39.686994675133974l.96394023512039.642957053025384c-17.031922427731843,22.01310588321212-32.456947567316092,43.22177243351689-49.006899877489559,43.22177243351689-14.460589560048902,0-14.460589560048902-10.925316457247391-14.460589560048902-16.870440147849877l-.481970117560195-.32197387092674c-6.748572334674463,8.034486440721594-16.228473783658046,17.192414018776617-27.636751047301004,17.192414018776617-10.122363157594009,0-15.585516730634481-5.783641410718701-15.585516730634481-19.280786080065809,0-18.638819715875798,19.923743133093012-42.419314478278466,48.84591294202437-42.419314478278466,8.354974278401642,0,12.532709089809941,4.820691864433684,13.818127851442114,10.926307146080944h.321478526511783l4.1777348114083-8.355469622818418,22.81605918286732-.642957053023565Zm-32.13546904080431,7.391529387698029c0-4.81970117560013-3.534777758384735-7.391529387698029-7.070050861186246-7.391529387698029-13.175666142833506,0-29.885614699634971,29.725618453005154-29.885614699634971,44.669168819447805,0,3.534777758384735,1.124431826166983,8.033495751889859,5.302166637575283,8.033495751889859,8.836944395961837,0,31.653498923245934-26.029358414740273,31.653498923245934-45.311135183639635Z"/>
  <path class="c" d="m581.461866067138544,442.259833742644332c1.285914106048949,3.052312296407763,2.410345932215932,8.99743598700843,2.410345932215932,12.211230563298159,0,21.530640421235148-20.887683368209764,36.633691689892657-41.133400372229517,36.633691689892657-13.176161487250283,0-27.958229573812787-8.514970525029639-27.958229573812787-25.708375232643448,0-31.171033461267143,46.597049289688584-53.022657064599116,113.438824894563368-53.022657064599116,17.995862662850413,0,38.723054440015403,1.284923417215396,50.613301821216737,1.605906599310401,10.604333275152385.321973870930378,15.103051268657509,1.928871159074333,15.103051268657509,8.355469622816599,0,6.267097561531045-5.945123690600667,8.998426675841984-18.959802897972622,8.998426675841984-6.588080743624232,0-11.729755790152922-.642957053021746-17.352905609825029-1.28591410604713-18.959802897970803,5.302166637577102-31.332515741150928,18.317836533778973-44.990152001544629,45.311135183639635-16.388965374706459,32.456947567317911-38.723054440013584,55.594485276697014-76.642660235955191,55.594485276697014-16.710939245635018,0-30.529067097077132-7.391529387698029-30.529067097077132-21.209657239140142,0-6.266106872695673,5.303157326408837-12.21123056329634,11.729755790152922-12.21123056329634,5.462658228623695,0,10.122858502008967,3.534777758384735,10.122858502008967,9.319409857936989,0,4.81970117560013-2.570837523262526,8.515961213865012-7.06955551676765,9.961376222127001,1.284923417215396,8.677443493748797,7.873004160841447,12.212221252131712,15.906499912731306,12.212221252131712,29.082661399977951,0,41.29389196327611-33.420887802436482,58.16532279995954-60.896651914274116,13.657636260393701-22.334089065305307,33.903353264415273-32.456947567316092,56.718917102865817-38.402071257916759v-.321973870928559c-10.283350093057379-.320983182096825-23.137537709380922-2.248863652337604-49.488869995047935-1.60590659931222-19.923743133091193,0-84.194681214701632,3.85576094047974-84.194681214701632,37.597631925013047,0,12.693696025275131,13.97961013132408,17.674879480755408,26.672315467763838,17.674879480755408,17.83537107180382,0,37.92059648477516-13.818127851440295,37.92059648477516-28.922169808934996,0-3.534777758382916-.803448644071977-7.873004160837809-2.249854341169339-11.407781919222543l1.767388879192367-.481474773145237Z"/>
  <path class="c" d="m712.891600180386376,487.088503464308815c-1.767388879194186,1.767388879192367-7.873004160841447,9.157927578056842-16.549456965754871,9.157927578056842-5.623149819672108,0-9.96137622212882-2.891820705359351-13.497144669347108-7.390538698864475h-.320983182095006c0,22.494580656355538-22.816554527284097,41.454383554324522-46.596058600855031,41.454383554324522-14.300593313419085,0-27.637246391717781-5.462658228623695-27.637246391717781-21.851623603330154,0-24.583943406476465,25.387392050548442-39.848476955014121,47.88197270690398-39.848476955014121,27.636255702884228,0,23.940986353452899,25.708375232643448,40.169460137110946,25.708375232643448,4.820691864433684,0,10.443841684105792-2.891820705359351,15.264533548539475-8.515961213865012l1.284923417215396,1.285914106048949Zm-87.246993511111214,33.098913931507923c0,4.981183455482096,2.409355243384198,8.194978031770006,6.426598463745904,8.194978031770006,15.425025139586069,0,33.099904620341476-34.545319628605284,33.099904620341476-49.649361586096347,0-4.981183455480277-2.410345932215932-8.194978031770006-6.427589152577639-8.194978031770006-15.425025139586069,0-33.098913931509742,34.546310317438838-33.098913931509742,49.649361586096347Z"/>
  <path class="c" d="m736.828623778503243,469.253132392506814l-5.624140508505661,8.676452804911605c-20.566700186116577,30.850050279173956-23.780494762404487,37.116157151869629-23.780494762404487,42.257832198398319,0,2.732319803146311,1.767388879192367,4.660200273385271,4.338226402456712,4.660200273385271,8.515961213865012,0,27.958229573812787-19.923743133091193,45.472617463521601-53.666604806458054l23.298029300425696-.642957053023565c-5.463648917457249,9.641383728865549-29.404635270908329,40.491434008039505-29.404635270908329,51.578232745170681,0,3.052312296407763,1.446405697097362,4.016252531526334,3.534777758382916,4.016252531526334,10.765815555034351,0,34.706801908489069-29.886110044051748,42.579806069328697-40.329951728157539l1.446405697095543,1.285914106048949c-10.926307146080944,12.854187616321724-32.135964385219268,43.22177243351689-51.416750465286896,43.22177243351689-9.479901448987221,0-13.497144669347108-6.748572334672645-13.497144669347108-13.657636260393701,0-2.570837523264345.803448644073796-5.462658228623695,1.446405697097362-7.06955551676765l-.321973870930378-.320983182096825c-9.318419169103436,10.764824866200797-19.923743133091193,21.048174959258176-31.653498923244115,21.048174959258176-8.836944395961837,0-13.175170798418549-5.945123690600667-13.175170798418549-13.978619442488707,0-12.693696025275131,19.281776768901182-38.723054440013584,23.620003171356075-46.435567009808437l23.137537709380922-.642957053021746Z"/>
  <path class="c" d="m867.936384020820697,486.766529593378436c-8.355469622818418,10.605323963987757-16.549456965753052,21.049165648093549-27.796747293930821,30.208083914982126-10.283350093057379,8.354478933984865-21.04916564809173,13.335662389465142-35.349758961512634,13.335662389465142-11.728765101319368,0-22.976055429498956-5.783641410718701-22.976055429498956-18.638819715873979,0-25.065418179619883,28.921179120099623-43.061280842470296,50.613301821216737-43.061280842470296,10.283350093057379,0,17.352905609828667,3.534777758384735,17.352905609828667,10.605323963985938,0,8.836944395960018-8.355469622820237,13.335662389465142-17.835371071805639,13.335662389465142h-1.285914106048949c.321973870930378-2.248863652333966.482465461978791-4.981183455480277.482465461978791-9.319409857938808,0-7.390538698862656-.963940235122209-11.407781919224362-4.981183455482096-11.407781919224362-8.836944395961837,0-23.458520891474109,22.97704611833251-23.458520891474109,38.080097386990019,0,9.158918266890396,4.659209584551718,15.586507419468035,13.818127851442114,15.586507419468035,9.479901448983583,0,20.245717004017934-7.391529387699848,31.332515741149109-18.157344942732379,7.230047107816063-7.069555516769469,14.621576495514091-16.388965374708278,18.798320618088837-21.69113201228356l1.285914106048949,1.124431826166983Z"/>
  <path class="c" d="m836.60188690200448,528.382395427586744c22.012115194376747-37.116157151869629,43.382264024565302-74.554288174667818,65.234878316730828-111.830936917585859l22.97704611833251-1.606897288143955c-17.674879480757227,29.564136173125007-35.991725325704465,61.05714350532071-54.149070268436844,88.211924435061519l.321973870930378.320983182096825c9.800884631080407-13.17517079841673,26.993298649858843-34.867293499533844,44.346204259685692-34.867293499533844,7.070546205603023,0,13.176161487250283,3.534777758384735,13.176161487250283,12.21123056329634,0,15.264533548539475-21.209657239140142,31.975472794174493-21.209657239140142,41.455374243161714,0,2.24985434116752,1.285914106048949,3.855760940477921,3.534777758386554,3.855760940477921,13.176161487250283,0,37.277639431749776-35.188276681630668,41.615865834208307-40.169460137109127l.963940235118571.803448644070158c-10.765815555034351,13.497144669347108-29.886110044051748,43.543746304447268-49.809853177142941,43.543746304447268-8.355469622820237,0-12.693696025275131-7.06955551676765-12.693696025275131-14.461084904465679,0-16.066991503777899,19.280786080067628-28.600195938002798,19.280786080067628-37.759114204893194,0-2.570837523266164-1.445415008265627-4.016252531528153-3.695269349433147-4.016252531528153-11.568273510274594,0-39.044037622110409,35.027785090582256-47.881972706905799,53.344630935527675l-22.012115194376747.96394023512039Z"/>
</svg>